<svg xmlns="http://www.w3.org/2000/svg" viewBox="0 0 32 32" width="32" height="32">
    <!-- Background -->
    <rect width="32" height="32" fill="#000"/>

    <!-- Letter P - Blue fill with white outline -->
    <!-- P vertical bar -->
    <rect x="4" y="4" width="2" height="12" fill="#fff"/>
    <rect x="5" y="5" width="2" height="12" fill="#0066ff"/>

    <!-- P top horizontal -->
    <rect x="6" y="4" width="6" height="2" fill="#fff"/>
    <rect x="6" y="5" width="6" height="2" fill="#0066ff"/>

    <!-- P middle horizontal -->
    <rect x="6" y="8" width="4" height="2" fill="#fff"/>
    <rect x="6" y="9" width="4" height="2" fill="#0066ff"/>

    <!-- P top right vertical -->
    <rect x="12" y="6" width="2" height="2" fill="#fff"/>
    <rect x="11" y="7" width="2" height="2" fill="#0066ff"/>

    <!-- Letter S - Blue fill with white outline -->
    <!-- S top horizontal -->
    <rect x="18" y="4" width="6" height="2" fill="#fff"/>
    <rect x="18" y="5" width="6" height="2" fill="#0066ff"/>

    <!-- S top left vertical -->
    <rect x="18" y="6" width="2" height="2" fill="#fff"/>
    <rect x="19" y="7" width="2" height="2" fill="#0066ff"/>

    <!-- S middle horizontal -->
    <rect x="20" y="8" width="4" height="2" fill="#fff"/>
    <rect x="20" y="9" width="4" height="2" fill="#0066ff"/>

    <!-- S bottom right vertical -->
    <rect x="22" y="10" width="2" height="2" fill="#fff"/>
    <rect x="21" y="11" width="2" height="2" fill="#0066ff"/>

    <!-- S bottom horizontal -->
    <rect x="18" y="12" width="6" height="2" fill="#fff"/>
    <rect x="18" y="13" width="6" height="2" fill="#0066ff"/>
</svg>